# xmcd
#
# Track frame offsets:
#  150
#  18978
#  37532
#  55581
#  72639
#  87579
#  103151
#  117348
#  131252
#  148592
#  167446
#  183727
#  200922
#  216183
#
# Disc length: 3087 seconds
#
# Revision: 0
# Processed by: cddbd v1.5.2PL0 Copyright (c) Steve Scherf et al.
# Submitted via: Collectorz.com_Music_Collector 6.9
#
DISCID=ca0c0d0e
DTITLE=Various Artist - Mr Music Hits 2003-08
DYEAR=2003
DGENRE=Pop
TTITLE0=Jarabe de Palo - Bonito
TTITLE1=Kurt - She's So High
TTITLE2=Daniel Bedingfield - If You're Not The One
TTITLE3=Blu Cantrell feat. Sean Paul - Breathe
TTITLE4=A* Teens - Let Your Heart Do All The Talking
TTITLE5=Jamie Meyer - Last Goodbye, First Hello
TTITLE6=C 21 - She Cries
TTITLE7=Six - There's A Whole Lot Of Loving
TTITLE8=Antique - Time To Say Goodbye
TTITLE9=Gareth Gates - What My Heart Wants To Say
TTITLE10=Lisa Scott-Lee - Lately
TTITLE11=Jennifer Brown - Go Your Own Way
TTITLE12=Moneybrother - Stormy Weather
TTITLE13=Scooter - The Night
EXTD=
EXTT0=
EXTT1=
EXTT2=
EXTT3=
EXTT4=
EXTT5=
EXTT6=
EXTT7=
EXTT8=
EXTT9=
EXTT10=
EXTT11=
EXTT12=
EXTT13=
PLAYORDER=
